<?xml version="1.0" encoding="UTF-8" standalone="no"?>
<!-- Created with Inkscape (http://www.inkscape.org/) -->

<svg
   xmlns:dc="http://purl.org/dc/elements/1.1/"
   xmlns:cc="http://creativecommons.org/ns#"
   xmlns:rdf="http://www.w3.org/1999/02/22-rdf-syntax-ns#"
   xmlns:svg="http://www.w3.org/2000/svg"
   xmlns="http://www.w3.org/2000/svg"
   xmlns:xlink="http://www.w3.org/1999/xlink"
   xmlns:sodipodi="http://sodipodi.sourceforge.net/DTD/sodipodi-0.dtd"
   xmlns:inkscape="http://www.inkscape.org/namespaces/inkscape"
   width="1000"
   height="600"
   id="svg2"
   version="1.1"
   inkscape:version="0.48.3.1 r9886"
   sodipodi:docname="layout02.svg">
  <sodipodi:namedview
     id="base"
     pagecolor="#ffffff"
     bordercolor="#666666"
     borderopacity="1.0"
     inkscape:pageopacity="0.0"
     inkscape:pageshadow="2"
     inkscape:zoom="1.2228244"
     inkscape:cx="161.9884"
     inkscape:cy="-102.78073"
     inkscape:document-units="px"
     inkscape:current-layer="webslicer-layer"
     showgrid="false"
     width="1000px"
     inkscape:showpageshadow="false"
     inkscape:window-width="973"
     inkscape:window-height="744"
     inkscape:window-x="51"
     inkscape:window-y="24"
     inkscape:window-maximized="1"
     showguides="true"
     inkscape:guide-bbox="true"
     inkscape:snap-global="true"
     inkscape:snap-to-guides="true">
    <sodipodi:guide
       position="40,599.99999"
       orientation="200,0"
       id="guide3887" />
    <sodipodi:guide
       position="40,399.99999"
       orientation="0,870"
       id="guide3889" />
    <sodipodi:guide
       position="910,399.99999"
       orientation="-200,0"
       id="guide3891" />
    <sodipodi:guide
       position="910,599.99999"
       orientation="0,-870"
       id="guide3893" />
    <sodipodi:guide
       position="0,599.99999"
       orientation="600,0"
       id="guide3895" />
    <sodipodi:guide
       position="0,-9.9999997e-06"
       orientation="0,20"
       id="guide3897" />
    <sodipodi:guide
       position="20,-9.9999997e-06"
       orientation="-600,0"
       id="guide3899" />
    <sodipodi:guide
       position="20,599.99999"
       orientation="0,-20"
       id="guide3901" />
    <sodipodi:guide
       position="20,599.99999"
       orientation="600,0"
       id="guide3903" />
    <sodipodi:guide
       position="20,-9.9999997e-06"
       orientation="0,20"
       id="guide3905" />
    <sodipodi:guide
       position="40,-9.9999997e-06"
       orientation="-600,0"
       id="guide3907" />
    <sodipodi:guide
       position="40,599.99999"
       orientation="0,-20"
       id="guide3909" />
    <sodipodi:guide
       position="40,59.999939"
       orientation="60,0"
       id="guide3911" />
    <sodipodi:guide
       position="40,-6.1035156e-05"
       orientation="0,870"
       id="guide3913" />
    <sodipodi:guide
       position="910,-6.1035156e-05"
       orientation="-60,0"
       id="guide3915" />
    <sodipodi:guide
       position="910,59.999939"
       orientation="0,-870"
       id="guide3917" />
    <sodipodi:guide
       position="910,599.99999"
       orientation="600,0"
       id="guide3919" />
    <sodipodi:guide
       position="910,-9.9999997e-06"
       orientation="0,20"
       id="guide3921" />
    <sodipodi:guide
       position="930,-9.9999997e-06"
       orientation="-600,0"
       id="guide3923" />
    <sodipodi:guide
       position="930,599.99999"
       orientation="0,-20"
       id="guide3925" />
    <sodipodi:guide
       position="930,599.99999"
       orientation="600,0"
       id="guide3927" />
    <sodipodi:guide
       position="930,-9.9999997e-06"
       orientation="0,20"
       id="guide3929" />
    <sodipodi:guide
       position="950,-9.9999997e-06"
       orientation="-600,0"
       id="guide3931" />
    <sodipodi:guide
       position="950,599.99999"
       orientation="0,-20"
       id="guide3933" />
    <sodipodi:guide
       position="40,399.99998"
       orientation="340,0"
       id="guide3935" />
    <sodipodi:guide
       position="40,59.999985"
       orientation="0,870"
       id="guide3937" />
    <sodipodi:guide
       position="910,59.999985"
       orientation="-340,0"
       id="guide3939" />
    <sodipodi:guide
       position="910,399.99998"
       orientation="0,-870"
       id="guide3941" />
    <sodipodi:guide
       position="40,599.99999"
       orientation="200,0"
       id="guide3943" />
    <sodipodi:guide
       position="40,399.99999"
       orientation="0,200"
       id="guide3945" />
    <sodipodi:guide
       position="240,599.99999"
       orientation="0,-200"
       id="guide3949" />
    <sodipodi:guide
       position="200,429.99998"
       orientation="1,0"
       id="guide3951" />
    <sodipodi:guide
       position="240,399.99998"
       orientation="0,670"
       id="guide3953" />
    <sodipodi:guide
       position="910,399.99998"
       orientation="-30,0"
       id="guide3955" />
    <sodipodi:guide
       position="910,429.99998"
       orientation="0,-670"
       id="guide3957" />
    <sodipodi:guide
       position="0,599.99999"
       orientation="20,0"
       id="guide3959" />
    <sodipodi:guide
       position="0,579.99999"
       orientation="0,950"
       id="guide3961" />
    <sodipodi:guide
       position="950,579.99999"
       orientation="-20,0"
       id="guide3963" />
    <sodipodi:guide
       position="950,599.99999"
       orientation="0,-950"
       id="guide3965" />
    <sodipodi:guide
       position="0,20.000061"
       orientation="20,0"
       id="guide3967" />
    <sodipodi:guide
       position="0,6.1035156e-05"
       orientation="0,950"
       id="guide3969" />
    <sodipodi:guide
       position="950,6.1035156e-05"
       orientation="-20,0"
       id="guide3971" />
    <sodipodi:guide
       position="950,20.000061"
       orientation="0,-950"
       id="guide3973" />
    <sodipodi:guide
       orientation="0,1"
       position="0,380"
       id="guide4176" />
  </sodipodi:namedview>
  <defs
     id="defs4">
    <linearGradient
       id="linearGradient3928"
       inkscape:collect="always">
      <stop
         id="stop3930"
         offset="0"
         style="stop-color:#808080;stop-opacity:1;" />
      <stop
         id="stop3932"
         offset="1"
         style="stop-color:#808080;stop-opacity:0;" />
    </linearGradient>
    <linearGradient
       id="linearGradient3900">
      <stop
         id="stop3902"
         offset="0"
         style="stop-color:#4d4d4d;stop-opacity:1;" />
      <stop
         id="stop3904"
         offset="1"
         style="stop-color:#333333;stop-opacity:1;" />
    </linearGradient>
    <linearGradient
       id="linearGradient3892">
      <stop
         style="stop-color:#4d4d4d;stop-opacity:1;"
         offset="0"
         id="stop3894" />
      <stop
         id="stop3898"
         offset="1"
         style="stop-color:#333333;stop-opacity:1;" />
    </linearGradient>
    <linearGradient
       id="linearGradient4271">
      <stop
         id="stop4273"
         offset="0"
         style="stop-color:#000080;stop-opacity:1;" />
      <stop
         style="stop-color:#0000b1;stop-opacity:1;"
         offset="0.4058795"
         id="stop4275" />
      <stop
         id="stop4277"
         offset="1"
         style="stop-color:#000080;stop-opacity:1;" />
    </linearGradient>
    <linearGradient
       id="linearGradient4214">
      <stop
         style="stop-color:#000080;stop-opacity:1;"
         offset="0"
         id="stop4216" />
      <stop
         id="stop4222"
         offset="0.5"
         style="stop-color:#0000b1;stop-opacity:1;" />
      <stop
         style="stop-color:#000080;stop-opacity:1;"
         offset="1"
         id="stop4218" />
    </linearGradient>
    <filter
       id="filter4024"
       inkscape:label="Glow"
       inkscape:menu="Shadows and Glows"
       inkscape:menu-tooltip="Glow of object's own color at the edges"
       color-interpolation-filters="sRGB">
      <feGaussianBlur
         id="feGaussianBlur4026"
         stdDeviation="5"
         result="result91" />
      <feComposite
         id="feComposite4028"
         in2="result91"
         in="SourceGraphic"
         operator="over"
         result="fbSourceGraphic" />
      <feColorMatrix
         result="fbSourceGraphicAlpha"
         in="fbSourceGraphic"
         values="0 0 0 -1 0 0 0 0 -1 0 0 0 0 -1 0 0 0 0 1 0"
         id="feColorMatrix4030" />
      <feGaussianBlur
         id="feGaussianBlur4032"
         stdDeviation="5"
         result="result91"
         in="fbSourceGraphic" />
      <feComposite
         id="feComposite4034"
         in2="result91"
         in="fbSourceGraphic"
         operator="over" />
    </filter>
    <filter
       color-interpolation-filters="sRGB"
       inkscape:collect="always"
       id="filter4089">
      <feGaussianBlur
         inkscape:collect="always"
         stdDeviation="1.7236946"
         id="feGaussianBlur4091" />
    </filter>
    <linearGradient
       id="linearGradient4052">
      <stop
         style="stop-color:#0000ff;stop-opacity:1;"
         offset="0"
         id="stop4054" />
      <stop
         style="stop-color:#0000ff;stop-opacity:0;"
         offset="1"
         id="stop4056" />
    </linearGradient>
    <linearGradient
       inkscape:collect="always"
       xlink:href="#linearGradient4052"
       id="linearGradient4100"
       gradientUnits="userSpaceOnUse"
       gradientTransform="translate(-193.48092,-389.33755)"
       x1="405.51425"
       y1="464.47809"
       x2="387.61005"
       y2="581.67633" />
    <filter
       id="filter4024-9"
       inkscape:label="Glow"
       inkscape:menu="Shadows and Glows"
       inkscape:menu-tooltip="Glow of object's own color at the edges"
       color-interpolation-filters="sRGB">
      <feGaussianBlur
         id="feGaussianBlur4026-5"
         stdDeviation="5"
         result="result91" />
      <feComposite
         id="feComposite4028-5"
         in2="result91"
         in="SourceGraphic"
         operator="over"
         result="fbSourceGraphic" />
      <feColorMatrix
         result="fbSourceGraphicAlpha"
         in="fbSourceGraphic"
         values="0 0 0 -1 0 0 0 0 -1 0 0 0 0 -1 0 0 0 0 1 0"
         id="feColorMatrix4030-7" />
      <feGaussianBlur
         id="feGaussianBlur4032-5"
         stdDeviation="5"
         result="result91"
         in="fbSourceGraphic" />
      <feComposite
         id="feComposite4034-7"
         in2="result91"
         in="fbSourceGraphic"
         operator="over" />
    </filter>
    <filter
       id="filter4167"
       inkscape:label="Glow"
       inkscape:menu="Shadows and Glows"
       inkscape:menu-tooltip="Glow of object's own color at the edges"
       color-interpolation-filters="sRGB">
      <feGaussianBlur
         id="feGaussianBlur4169"
         stdDeviation="5"
         result="result91" />
      <feComposite
         id="feComposite4171"
         in2="result91"
         in="SourceGraphic"
         operator="over" />
    </filter>
    <linearGradient
       inkscape:collect="always"
       xlink:href="#linearGradient4214"
       id="linearGradient4220"
       x1="701.70654"
       y1="111.86016"
       x2="628.55408"
       y2="250.41701"
       gradientUnits="userSpaceOnUse"
       gradientTransform="matrix(1.0247012,0,0,1.1999999,-5.422061,-3.9999995)" />
    <linearGradient
       inkscape:collect="always"
       xlink:href="#linearGradient4214-6"
       id="linearGradient4220-3"
       x1="701.70654"
       y1="111.86016"
       x2="628.55408"
       y2="250.41701"
       gradientUnits="userSpaceOnUse"
       gradientTransform="matrix(1.0247012,0,0,1.1999999,-5.422061,-3.9999995)" />
    <linearGradient
       id="linearGradient4214-6">
      <stop
         style="stop-color:#000080;stop-opacity:1;"
         offset="0"
         id="stop4216-9" />
      <stop
         id="stop4222-7"
         offset="0.5"
         style="stop-color:#0000b1;stop-opacity:1;" />
      <stop
         style="stop-color:#000080;stop-opacity:1;"
         offset="1"
         id="stop4218-9" />
    </linearGradient>
    <linearGradient
       y2="25.226442"
       x2="639.74182"
       y1="96.83094"
       x1="463.7887"
       gradientTransform="matrix(1.2910905,0,0,0.26666664,-243.40229,-585.3333)"
       gradientUnits="userSpaceOnUse"
       id="linearGradient4250"
       xlink:href="#linearGradient4271"
       inkscape:collect="always" />
    <filter
       color-interpolation-filters="sRGB"
       inkscape:menu-tooltip="Glow of object's own color at the edges"
       inkscape:menu="Shadows and Glows"
       inkscape:label="Glow"
       id="filter5065">
      <feGaussianBlur
         result="result91"
         stdDeviation="5"
         id="feGaussianBlur5067" />
      <feComposite
         operator="over"
         in="SourceGraphic"
         in2="result91"
         id="feComposite5069" />
    </filter>
    <linearGradient
       y2="581.67633"
       x2="387.61005"
       y1="464.47809"
       x1="405.51425"
       gradientTransform="matrix(1.0444017,0,0,1.0444017,-258.66058,-419.69934)"
       gradientUnits="userSpaceOnUse"
       id="linearGradient5077"
       xlink:href="#linearGradient4052"
       inkscape:collect="always" />
    <linearGradient
       gradientTransform="matrix(27,0,0,0.02217884,-2914.5643,-20)"
       gradientUnits="userSpaceOnUse"
       y2="450.8802"
       x2="127.94682"
       y1="450.8802"
       x1="107.94682"
       id="linearGradient3934"
       xlink:href="#linearGradient3928"
       inkscape:collect="always" />
  </defs>
  <metadata
     id="metadata7">
    <rdf:RDF>
      <cc:Work
         rdf:about="">
        <dc:format>image/svg+xml</dc:format>
        <dc:type
           rdf:resource="http://purl.org/dc/dcmitype/StillImage" />
        <dc:title />
      </cc:Work>
    </rdf:RDF>
  </metadata>
  <g
     sodipodi:insensitive="true"
     inkscape:label="Layout"
     inkscape:groupmode="layer"
     id="layer1"
     transform="translate(0,-452.36223)"
     style="display:none">
    <rect
       style="opacity:0.95;color:#000000;fill:#b3b3b3;fill-opacity:1;fill-rule:evenodd;stroke:none;stroke-width:1.42499995;marker:none;visibility:visible;display:inline;overflow:visible;enable-background:accumulate"
       id="rect2985"
       width="870"
       height="200"
       x="40"
       y="452.36224" />
    <rect
       y="452.36224"
       x="0"
       height="600"
       width="20"
       id="rect3755"
       style="opacity:0.95;color:#000000;fill:#4d4d4d;fill-opacity:1;fill-rule:evenodd;stroke:none;stroke-width:1.42499995;marker:none;visibility:visible;display:inline;overflow:visible;enable-background:accumulate" />
    <rect
       style="opacity:0.95;color:#000000;fill:#808080;fill-opacity:1;fill-rule:evenodd;stroke:none;stroke-width:1.42499995;marker:none;visibility:visible;display:inline;overflow:visible;enable-background:accumulate"
       id="rect3757"
       width="20"
       height="600"
       x="20"
       y="452.36224" />
    <rect
       y="992.3623"
       x="40"
       height="60"
       width="870"
       id="rect3778"
       style="opacity:0.95;color:#000000;fill:#b3b3b3;fill-opacity:1;fill-rule:evenodd;stroke:none;stroke-width:1.42499995;marker:none;visibility:visible;display:inline;overflow:visible;enable-background:accumulate" />
    <rect
       y="452.36224"
       x="910"
       height="600"
       width="20"
       id="rect3780"
       style="opacity:0.95;color:#000000;fill:#808080;fill-opacity:1;fill-rule:evenodd;stroke:none;stroke-width:1.42499995;marker:none;visibility:visible;display:inline;overflow:visible;enable-background:accumulate" />
    <rect
       style="opacity:0.95;color:#000000;fill:#4d4d4d;fill-opacity:1;fill-rule:evenodd;stroke:none;stroke-width:1.42499995;marker:none;visibility:visible;display:inline;overflow:visible;enable-background:accumulate"
       id="rect3782"
       width="20"
       height="600"
       x="930"
       y="452.36224" />
    <rect
       y="652.36224"
       x="40"
       height="340"
       width="870"
       id="rect3784"
       style="opacity:0.95;color:#000000;fill:#333333;fill-opacity:1;fill-rule:evenodd;stroke:none;stroke-width:1.42499995;marker:none;visibility:visible;display:inline;overflow:visible;enable-background:accumulate" />
    <rect
       y="452.36224"
       x="40"
       height="200"
       width="200"
       id="rect3786"
       style="opacity:0.95;color:#000000;fill:#666666;fill-opacity:1;fill-rule:evenodd;stroke:none;stroke-width:1.42499995;marker:none;visibility:visible;display:inline;overflow:visible;enable-background:accumulate" />
    <rect
       y="622.36224"
       x="240"
       height="30"
       width="670"
       id="rect3788"
       style="opacity:0.95;color:#000000;fill:#1a1a1a;fill-opacity:1;fill-rule:evenodd;stroke:none;stroke-width:1.42499995;marker:none;visibility:visible;display:inline;overflow:visible;enable-background:accumulate" />
    <rect
       y="452.36224"
       x="0"
       height="20"
       width="950"
       id="rect3790"
       style="opacity:0.95;color:#000000;fill:#4d4d4d;fill-opacity:1;fill-rule:evenodd;stroke:none;stroke-width:1.42499995;marker:none;visibility:visible;display:inline;overflow:visible;enable-background:accumulate" />
    <rect
       style="opacity:0.95;color:#000000;fill:#4d4d4d;fill-opacity:1;fill-rule:evenodd;stroke:none;stroke-width:1.42499995;marker:none;visibility:visible;display:inline;overflow:visible;enable-background:accumulate"
       id="rect3809"
       width="950"
       height="20"
       x="0"
       y="1032.3622" />
  </g>
  <g
     inkscape:groupmode="layer"
     id="layer2"
     inkscape:label="Background"
     style="display:inline">
    <rect
       style="opacity:0.94999999999999996;color:#000000;fill:#b3b3b3;fill-opacity:1;fill-rule:evenodd;stroke:none;stroke-width:1.42499994999999990;marker:none;visibility:visible;display:inline;overflow:visible;enable-background:accumulate"
       id="rect3757-1"
       width="20"
       height="901.76038"
       x="0"
       y="9.9999997e-06" />
    <rect
       transform="matrix(0,1,-1,0,0,0)"
       y="-20"
       x="9.9999997e-06"
       height="20"
       width="540"
       id="rect3926"
       style="opacity:0.95;color:#000000;fill:url(#linearGradient3934);fill-opacity:1;fill-rule:evenodd;stroke:none;stroke-width:1.42499995;marker:none;visibility:visible;display:inline;overflow:visible;enable-background:accumulate" />
  </g>
  <g
     sodipodi:insensitive="true"
     inkscape:groupmode="layer"
     id="layer5"
     inkscape:label="Shadow"
     style="opacity:0.56734691;display:inline">
    <rect
       style="opacity:0.95;color:#000000;fill:#000000;fill-opacity:1;fill-rule:evenodd;stroke:none;stroke-width:1.42499995;marker:none;visibility:visible;display:inline;overflow:visible;filter:url(#filter5065);enable-background:accumulate"
       id="rect4139"
       width="910"
       height="560"
       x="20"
       y="20.00001"
       ry="18.384777" />
  </g>
  <g
     style="display:inline"
     sodipodi:insensitive="true"
     inkscape:groupmode="layer"
     id="layer7"
     inkscape:label="Content">
    <rect
       style="color:#000000;fill:#ffffff;fill-opacity:1;fill-rule:evenodd;stroke:none;stroke-width:1.42499995;marker:none;visibility:visible;display:inline;overflow:visible;enable-background:accumulate"
       id="rect4209"
       width="910"
       height="340.00006"
       x="20"
       y="200.00002" />
  </g>
  <g
     sodipodi:insensitive="true"
     inkscape:groupmode="layer"
     id="layer3"
     inkscape:label="Header"
     style="display:inline">
    <path
       style="color:#000000;fill:#000080;fill-opacity:1;fill-rule:evenodd;stroke:none;stroke-width:1.42499995;marker:none;visibility:visible;display:inline;overflow:visible;enable-background:accumulate"
       d="M 36.25,20 C 27.240045,20 20,27.240045 20,36.25 l 0,146.75 0,0.75 0,16.25 16.25,0 877.5,0 16.25,0 0,-16.25 0,-0.75 0,-146.75 C 930,27.240045 922.75995,20 913.75,20 l -877.5,0 z"
       id="rect4036"
       inkscape:connector-curvature="0" />
    <rect
       style="opacity:0.7942387;color:#000000;fill:url(#linearGradient4220);fill-opacity:1;fill-rule:evenodd;stroke:none;stroke-width:1.42499995;marker:none;visibility:visible;display:inline;overflow:visible;enable-background:accumulate"
       id="rect4212"
       width="690.49384"
       height="180"
       x="219.50613"
       y="20.00001" />
  </g>
  <g
     style="display:none"
     inkscape:label="Title"
     id="layer10"
     inkscape:groupmode="layer">
    <text
       xml:space="preserve"
       style="font-size:28.71791077px;font-style:normal;font-weight:normal;line-height:125%;letter-spacing:0px;word-spacing:0px;fill:#ffd5d5;fill-opacity:1;stroke:none;display:inline;font-family:Sans"
       x="255.51883"
       y="98.821732"
       id="text2985-4"
       sodipodi:linespacing="125%"
       transform="matrix(0.8422649,-0.03435592,0.04834842,1.1853028,0,0)"><tspan
         sodipodi:role="line"
         id="tspan2987-66"
         x="255.51883"
         y="98.821732"
         style="font-size:103.38448334px;font-style:normal;font-variant:normal;font-weight:normal;font-stretch:normal;fill:#ffd5d5;font-family:Spumoni LP Std;-inkscape-font-specification:Spumoni LP Std">CK</tspan></text>
    <text
       sodipodi:linespacing="125%"
       id="text5673"
       y="95.484306"
       x="319.15497"
       style="font-size:40px;font-style:normal;font-weight:normal;line-height:125%;letter-spacing:0px;word-spacing:0px;fill:#000000;fill-opacity:1;stroke:none;font-family:Sans"
       xml:space="preserve"><tspan
         style="font-size:56px;font-style:normal;font-variant:normal;font-weight:normal;font-stretch:normal;font-family:KacstOne;-inkscape-font-specification:KacstOne"
         y="95.484306"
         x="319.15497"
         id="tspan5675"
         sodipodi:role="line">CASTING</tspan></text>
  </g>
  <g
     sodipodi:insensitive="true"
     inkscape:groupmode="layer"
     id="layer6"
     inkscape:label="Footer"
     style="display:inline">
    <path
       style="color:#000000;fill:#000080;fill-opacity:1;fill-rule:evenodd;stroke:none;stroke-width:1.42499995;marker:none;visibility:visible;display:inline;overflow:visible;enable-background:accumulate"
       d="m 930,540 -910,0 0,23.75 c 0,9.00995 7.24005,16.25 16.25,16.25 l 877.5,0 c 9.00995,0 16.25,-7.24004 16.25,-16.25 L 930,540 z"
       id="path4204"
       inkscape:connector-curvature="0" />
    <rect
       style="opacity:0.71193417;color:#000000;fill:url(#linearGradient4250);fill-opacity:1;fill-rule:evenodd;stroke:none;stroke-width:1.42499995;marker:none;visibility:visible;display:inline;overflow:visible;enable-background:accumulate"
       id="rect4212-4"
       width="870"
       height="40"
       x="40"
       y="-579.99994"
       transform="scale(1,-1)" />
  </g>
  <g
     sodipodi:insensitive="true"
     inkscape:groupmode="layer"
     id="layer4"
     inkscape:label="Logo"
     style="display:inline">
    <path
       sodipodi:type="arc"
       style="opacity:0.95;color:#000000;fill:#0000ff;fill-opacity:1;fill-rule:evenodd;stroke:none;stroke-width:0.52499998;marker:none;visibility:visible;display:inline;overflow:visible;enable-background:accumulate"
       id="path3004-5"
       sodipodi:cx="511.37485"
       sodipodi:cy="490.66254"
       sodipodi:rx="83.770454"
       sodipodi:ry="30.945055"
       d="m 595.1453,490.66254 a 83.770454,30.945055 0 1 1 -167.54091,0 83.770454,30.945055 0 1 1 167.54091,0 z"
       transform="matrix(0.91579997,0,0,0.96000556,-361.71591,-281.32667)" />
    <path
       inkscape:connector-curvature="0"
       id="path3909"
       style="font-size:40px;font-style:normal;font-variant:normal;font-weight:normal;font-stretch:normal;line-height:125%;letter-spacing:0px;word-spacing:0px;fill:#ffffff;fill-opacity:1;stroke:none;font-family:Spumoni LP Std;-inkscape-font-specification:Spumoni LP Std"
       d="m 73.81344,200.56454 c 0.292934,-1.11688 0.06778,-2.13091 -0.659779,-2.32174 -0.306334,-0.0802 -0.623195,0.0355 -0.672021,0.22166 -0.0093,0.0373 0.0093,0.12173 0.114101,0.18909 0.400925,0.34389 0.47444,0.99983 0.269393,1.78164 -0.458931,1.74978 -2.782328,4.52259 -6.075451,3.65887 -0.650966,-0.17073 -1.310933,-0.4632 -2.008427,-0.92468 -2.302696,-1.51912 -1.916142,-8.14232 -0.451464,-13.72672 1.035034,-3.94632 2.623391,-7.3496 4.149909,-7.86441 1.123307,-0.38181 2.148961,-0.39134 3.106271,-0.14026 2.182653,0.57247 3.725453,2.64832 3.417396,4.91515 -0.03906,0.14892 -0.135166,0.20329 -0.211762,0.1832 -0.07655,-0.02 -0.133642,-0.11462 -0.132869,-0.27359 -0.06151,-1.17003 -0.603486,-2.06823 -2.250048,-2.50009 -1.876321,-0.49212 -3.607897,0.80451 -4.047307,2.47983 -0.224578,0.85627 -0.104539,1.80294 0.437489,2.70113 0.3994,0.66181 1.001539,1.01869 1.614217,1.17939 1.952885,0.5122 4.692903,-1.19637 5.116607,-3.59203 0.522106,-2.92692 -1.239913,-5.25922 -4.11182,-6.01246 -1.455112,-0.38165 -3.218856,-0.36675 -5.119302,0.16935 -5.211752,1.45818 -8.576689,5.54944 -9.758189,10.05417 -1.171735,4.46754 -0.112001,9.32138 3.545096,12.23029 1.117186,0.88987 2.494178,1.56935 3.949269,1.95099 2.871907,0.75325 6.104371,0.28796 8.502798,-2.14683 0.664563,-0.6613 1.080611,-1.46736 1.275893,-2.21195" />
    <path
       inkscape:connector-curvature="0"
       id="path3911"
       style="font-size:40px;font-style:normal;font-variant:normal;font-weight:normal;font-stretch:normal;line-height:125%;letter-spacing:0px;word-spacing:0px;fill:#ffffff;fill-opacity:1;stroke:none;font-family:Spumoni LP Std;-inkscape-font-specification:Spumoni LP Std"
       d="m 88.149033,204.75173 c -0.293968,0.16558 -0.91406,0.41636 -1.433661,0.44467 0.582442,-2.38061 1.143192,-4.5313 1.2845,-6.45094 0.137715,-1.88132 -0.140389,-3.56991 -1.110199,-5.0918 -0.969811,-1.52188 -2.488464,-2.28369 -4.104373,-2.43613 -2.99172,-0.32093 -6.23253,1.577 -6.378506,4.81063 -0.04407,1.31026 0.947763,2.17702 2.011894,2.2774 1.458266,0.13756 2.398332,-1.39747 2.392149,-2.59649 -0.02391,-1.43266 -0.514232,-2.13613 -1.456522,-2.26367 -0.394115,-0.0371 -0.88514,0.10983 -1.394244,0.44837 0.534753,-1.03202 1.37722,-1.53243 2.204878,-1.45435 0.827667,0.078 1.597496,0.76924 1.911756,2.07465 0.2571,1.06805 0.277393,2.53903 0.405081,4.13611 -1.419196,0.29137 -3.125121,0.67169 -5.443223,0.3757 -0.886541,1.81068 -0.891564,3.54988 -0.344444,4.91592 0.54711,1.36603 1.847025,2.33916 3.190668,2.42724 0.748836,0.0706 1.727263,-0.185 2.508632,-0.45923 1.999173,0.30457 3.436113,0.24683 5.242207,0.0693 0.111343,-0.33744 0.319608,-0.85904 0.513407,-1.22734 m -5.984505,0.63391 c -1.211297,0.19501 -1.772516,-1.44295 -1.724829,-2.79154 0.03363,-1.62054 0.39329,-3.32628 2.081148,-3.51499 -0.07009,2.42892 -0.211732,4.7738 -0.356319,6.30653" />
    <path
       inkscape:connector-curvature="0"
       id="path3913"
       style="font-size:40px;font-style:normal;font-variant:normal;font-weight:normal;font-stretch:normal;line-height:125%;letter-spacing:0px;word-spacing:0px;fill:#ffffff;fill-opacity:1;stroke:none;font-family:Spumoni LP Std;-inkscape-font-specification:Spumoni LP Std"
       d="m 103.54492,201.10834 c 0,-0.69279 -0.11875,-1.38559 -0.43546,-2.0014 -1.74184,-3.46398 -6.809026,-3.50247 -8.194584,-4.58014 -0.554236,-0.46187 -0.91052,-1.07769 -0.91052,-1.77048 0,-0.57732 0.277118,-1.19315 0.91052,-1.6935 0.67298,-0.53884 1.623088,-0.9622 2.533598,-0.9622 0.19793,0 0.43546,0.0386 0.633391,0.077 -0.950098,0.3464 -1.464735,1.11618 -1.464735,1.92443 0,0.46186 0.197941,0.96222 0.554225,1.3471 0.633402,0.6928 1.464735,1.23165 2.414822,1.23165 0.593823,0 1.266803,-0.19245 1.900193,-0.76978 0.43547,-0.42337 0.75217,-1.03919 0.75217,-1.73198 0,-0.76978 -0.35628,-1.57804 -1.14803,-2.03991 -0.98968,-0.57733 -2.018959,-0.80825 -3.048234,-0.80825 -1.543911,0 -3.087823,0.53883 -4.275439,1.23163 -1.781431,1.0007 -3.206584,3.19455 -3.206584,5.34991 0,0.76978 0.197949,1.53955 0.633398,2.23234 1.741853,2.73269 6.373577,2.27083 7.8779,4.27224 0.356284,0.46185 0.672979,1.19314 0.672979,2.0014 0,1.07768 -0.514637,2.27083 -2.098126,3.15606 -0.633402,0.3464 -1.741842,0.57734 -2.850293,0.57734 -1.821019,0 -3.681637,-0.57734 -3.681637,-2.15536 0.554237,0.80825 1.543923,1.30861 2.533609,1.30861 0.633391,0 1.266793,-0.19245 1.821019,-0.69279 0.554214,-0.50036 0.831332,-1.19316 0.831332,-1.96293 0,-1.27012 -0.831343,-2.65571 -2.652351,-3.00211 -0.197953,-0.0385 -0.395883,-0.077 -0.633402,-0.077 -1.662677,0 -3.642048,1.23163 -3.642048,3.34851 0,0.42337 0.07917,0.88523 0.277111,1.38559 0.593816,1.655 2.969054,2.61721 5.502651,2.61721 1.702254,0 3.523273,-0.46185 4.869255,-1.38559 1.86059,-1.27012 3.52327,-4.00281 3.52327,-6.42759" />
    <path
       inkscape:connector-curvature="0"
       id="path3915"
       style="font-size:40px;font-style:normal;font-variant:normal;font-weight:normal;font-stretch:normal;line-height:125%;letter-spacing:0px;word-spacing:0px;fill:#ffffff;fill-opacity:1;stroke:none;font-family:Spumoni LP Std;-inkscape-font-specification:Spumoni LP Std"
       d="m 116.87475,206.71002 c 0,-0.57732 -0.11876,-1.11616 -0.43547,-1.53954 -0.23752,-0.3464 -0.5938,-0.53884 -0.91051,-0.53884 -0.23752,0 -0.47504,0.11548 -0.55421,0.30791 -0.11877,0.26941 -0.0396,0.30791 0.31669,0.61581 0.3167,0.30791 0.55423,0.92374 0.55423,1.61653 0.0396,0.92373 -0.31671,2.03989 -1.3064,2.6942 -0.31668,0.19245 -0.75215,0.34639 -1.18761,0.34639 -0.98969,0.0386 -2.05855,-0.57732 -2.09813,-2.54024 -0.0396,-2.11688 0.51464,-5.46538 1.02927,-11.85448 0.87093,-0.077 1.93979,-0.15396 2.96905,-0.46187 -0.0396,-0.61581 -0.19793,-1.34709 -0.23753,-1.80896 -1.02926,0.19244 -1.78142,0.46187 -2.69193,0.61581 0.0792,-2.15536 0.39587,-3.69489 0.75216,-6.69701 -0.71258,-0.0386 -1.42515,-0.077 -2.13772,-0.077 -1.66267,-0.0386 -3.16699,0.0386 -4.31503,0.46185 0,0.30791 -0.0396,0.61583 -0.0396,0.88525 0.27712,-0.15396 0.71258,-0.34639 0.95011,-0.42338 -0.31671,1.46257 -0.87093,3.61794 -1.10846,6.38911 -0.63339,0.0386 -1.2272,0.11547 -1.82102,0.11547 0,0.30791 0.15835,0.61581 0.27712,0.88523 0.47505,0 1.02927,-0.077 1.42514,-0.15395 -0.19793,2.30931 -0.39587,4.11828 -0.43546,5.7348 -0.0396,0.73127 -0.0396,1.42408 0,2.07838 0.11876,3.46397 0.31671,5.19596 1.82102,6.7355 1.06886,1.07769 2.25648,1.46257 3.52327,1.42409 1.02929,0 2.09815,-0.30791 3.04824,-0.76978 1.5835,-0.76977 2.61277,-2.54025 2.61277,-4.04131" />
    <path
       inkscape:connector-curvature="0"
       id="path3917"
       style="font-size:40px;font-style:normal;font-variant:normal;font-weight:normal;font-stretch:normal;line-height:125%;letter-spacing:0px;word-spacing:0px;fill:#ffffff;fill-opacity:1;stroke:none;font-family:Spumoni LP Std;-inkscape-font-specification:Spumoni LP Std"
       d="m 123.43017,190.69877 c -0.0396,-1.15466 -0.47504,-2.03989 -1.90019,-2.27082 -2.49401,-0.38488 -3.7608,1.27012 -3.83998,2.88664 -0.0396,1.53954 1.18763,2.69421 2.45442,2.69421 1.62309,0 3.32534,-1.50106 3.28575,-3.31003 m 0.9501,17.82022 c -0.19794,0 -0.43546,0 -0.67299,-0.0385 0,-4.84955 0,-8.12109 -0.31669,-11.58506 -2.17731,-0.38489 -4.79008,-0.3464 -6.65069,-0.46187 0.11877,0.34639 0.3167,0.76978 0.43546,1.0392 0.67299,-0.11546 1.18763,-0.23094 1.78144,-0.19245 -0.35628,1.46257 -0.43546,3.84886 -0.39588,7.27435 0,1.27012 0,2.6942 0.0396,4.23374 -0.47506,0.0385 -0.87093,-0.0386 -1.42516,-0.077 0.15835,0.26943 0.39587,0.53884 0.55423,0.76978 1.97936,-0.0385 4.07749,-0.19245 6.65068,-0.26943 l 0,-0.69279" />
    <path
       inkscape:connector-curvature="0"
       id="path3919"
       style="font-size:40px;font-style:normal;font-variant:normal;font-weight:normal;font-stretch:normal;line-height:125%;letter-spacing:0px;word-spacing:0px;fill:#ffffff;fill-opacity:1;stroke:none;font-family:Spumoni LP Std;-inkscape-font-specification:Spumoni LP Std"
       d="m 124.51624,194.03204 c 0.52122,-0.46338 1.79255,-0.98265 2.45795,-1.10942 -0.13106,1.43778 -0.13797,2.94352 -0.0264,4.44042 0.24307,3.26249 0.92326,6.53101 1.12629,9.25615 -0.82903,0.0617 -1.10537,0.0824 -1.38744,0.0262 0.009,0.11513 0.0623,0.30411 0.0852,0.61117 1.02929,-0.038 2.13754,-0.0821 3.20345,-0.16149 1.7765,-0.13236 3.46548,-0.37397 4.73681,-0.89325 -0.0514,-0.69087 -0.0291,-0.92411 -0.01,-1.19572 -0.33816,0.25675 -0.67916,0.47514 -1.14433,0.62559 -0.0407,-1.07765 -0.0784,-2.1169 -0.14983,-3.07646 -0.17158,-2.30293 -0.42155,-4.0597 -0.52164,-5.40306 -0.11153,-1.49691 0.051,-2.5125 0.57452,-3.4778 0.41654,-0.80294 1.01674,-1.2722 1.52996,-1.31044 0.59216,-0.0441 1.10023,0.38117 1.41145,1.36146 0.6253,1.99896 1.07886,7.02116 1.50955,11.73628 1.70901,0.0271 3.85797,0.0985 5.43709,-0.0191 0.59217,-0.0442 1.10252,-0.1208 1.49158,-0.22692 -0.14131,-0.29822 -0.3364,-0.78542 -0.4777,-1.08367 -0.38334,0.18296 -0.81188,0.29206 -1.28276,0.36574 -0.011,-2.27631 -0.008,-4.36072 -0.14459,-6.20307 -0.33743,-4.52908 -1.39811,-7.57628 -4.48367,-7.96391 -0.32153,-0.0533 -0.63736,-0.0297 -0.95318,-0.007 -1.89495,0.14119 -4.06514,1.38355 -5.06074,4.00501 -0.27746,-1.05999 -0.58582,-2.0019 -0.67391,-2.65145 -0.31868,-0.0149 -0.71633,-0.0239 -1.19006,0.0114 -1.85546,0.13824 -4.5537,0.68664 -6.15514,1.03752 l 0.0972,1.305" />
    <path
       inkscape:connector-curvature="0"
       id="path3921"
       style="font-size:40px;font-style:normal;font-variant:normal;font-weight:normal;font-stretch:normal;line-height:125%;letter-spacing:0px;word-spacing:0px;fill:#ffffff;fill-opacity:1;stroke:none;font-family:Spumoni LP Std;-inkscape-font-specification:Spumoni LP Std"
       d="m 162.70684,198.09141 c -0.426,-1.67877 -1.51378,-3.22933 -3.86932,-3.9817 -2.0396,-0.63397 -4.43707,-0.26386 -6.58533,0.12243 -2.19615,0.35873 -4.15257,0.69636 -5.12726,-0.24757 -0.47786,-0.43467 -0.70657,-0.85312 -0.0438,-1.29927 3.26749,0.3224 6.42,-2.38356 6.75499,-5.24815 0.0982,-0.73967 0.0434,-1.59934 -0.22214,-2.48497 -0.43597,-1.55712 -1.53372,-2.98602 -3.63213,-3.208 2.32321,-1.14545 3.2791,-3.33373 3.37983,-4.86819 0.0303,-0.52393 -0.007,-1.15005 -0.16687,-1.78425 -0.43596,-1.55714 -1.61993,-3.00387 -4.09563,-2.1374 -1.42024,0.51922 -1.98142,2.17054 -1.61173,3.46653 0.27505,0.92292 1.36435,1.9966 2.51548,1.70449 1.72669,-0.43815 2.52606,-1.63371 2.14739,-3.12596 -0.14199,-0.55958 -0.48531,-1.10781 -1.11667,-1.50351 0.76641,0.12319 1.31056,0.81898 1.58559,1.7419 0.54956,2.0048 -0.34207,5.09006 -3.89116,5.91124 -0.011,0.12164 -0.0872,0.30008 -0.0872,0.30008 -1.93598,-0.0646 -4.39377,1.19435 -5.58781,2.92685 -0.75102,1.06416 -0.96787,2.94577 -0.54187,4.62456 0.47382,1.70634 1.62887,3.20012 3.85138,3.58916 -1.21349,1.81684 -1.89536,5.24596 0.85237,6.25617 -1.38491,1.46326 -2.47584,3.92405 -1.97463,6.06025 0.38764,1.68852 1.75349,3.20822 4.71298,3.92645 1.9539,0.4572 4.00502,0.49264 5.92358,0.007 2.69545,-0.64422 5.03965,-2.35095 6.40018,-5.19781 0.4246,-0.90193 1.03616,-3.32047 0.42979,-5.54913 m -12.44579,-7.68223 c 0.0942,0.53202 -0.24273,0.97489 -0.65535,1.1193 -0.33587,0.12498 -0.75744,0.0731 -0.98617,-0.34539 -1.08625,-2.02745 -2.08276,-5.1498 -2.39163,-7.49364 -0.0937,-0.69098 0.21432,-1.0868 0.60751,-1.14685 0.38371,-0.0973 0.83369,0.0664 1.09081,0.59679 0.91434,1.83282 1.89293,4.56263 2.33483,7.26979 m 11.35384,10.46096 c 0.1136,0.44767 0.16939,0.98943 0.0907,1.64474 -0.21736,2.04059 -2.36326,4.68966 -5.81667,5.56597 -1.22788,0.31158 -2.67551,0.40096 -4.23725,0.20164 -3.20967,-0.4165 -5.06387,-2.09026 -5.60397,-4.05775 -0.43546,-1.71608 0.14566,-3.61071 1.88537,-5.1243 2.61417,0.80586 6.2116,-0.1467 8.87664,-0.26705 2.21456,-0.12517 4.25518,0.1909 4.80525,2.03675" />
    <path
       style="opacity:0.95;color:#000000;fill:url(#linearGradient5077);fill-opacity:1;fill-rule:evenodd;stroke:none;stroke-width:1.42499995;marker:none;visibility:visible;display:inline;overflow:visible;enable-background:accumulate"
       d="m 180.52145,187.81141 c -0.73738,-2.3233 -7.82346,-8.25684 -13.16116,-11.02053 -15.45273,-8.00092 -36.82685,-12.05251 -63.58999,-12.05389 -26.730138,-0.001 -48.853803,4.22535 -63.837186,12.19606 -3.009506,1.60097 -5.375755,2.67806 -5.258344,2.39355 0.117412,-0.28452 22.836824,-31.98989 50.487588,-70.45639 l 50.274112,-69.939102 0.54365,2.729409 c 2.06152,10.349895 9.95264,18.207764 22.30821,22.214193 12.52027,4.059829 27.53578,1.714604 33.6567,-5.256724 l 2.12258,-2.417487 -0.37959,2.256106 c -0.20877,1.240854 -2.94519,30.902537 -6.08092,65.914855 -3.13573,35.01232 -5.91785,63.90871 -6.18248,64.21418 -0.26464,0.30547 -0.67108,-0.043 -0.90317,-0.77423 z"
       id="path4046"
       inkscape:connector-curvature="0" />
    <text
       xml:space="preserve"
       style="font-size:37.47771072px;font-style:normal;font-weight:normal;line-height:125%;letter-spacing:0px;word-spacing:0px;fill:#000000;fill-opacity:0.30136988;stroke:none;filter:url(#filter4089);font-family:Sans"
       x="472.96811"
       y="458.70947"
       id="text2985-8"
       sodipodi:linespacing="125%"
       transform="matrix(0.87966285,-0.03588138,0.05049517,1.2379323,-405.51817,-376.08153)"><tspan
         sodipodi:role="line"
         id="tspan2987-6"
         x="472.96811"
         y="458.70947"
         style="font-size:134.91976929px;font-style:normal;font-variant:normal;font-weight:normal;font-stretch:normal;fill:#000000;fill-opacity:0.30136988;font-family:Spumoni LP Std;-inkscape-font-specification:Spumoni LP Std">CK</tspan></text>
    <text
       xml:space="preserve"
       style="font-size:39.14178085px;font-style:normal;font-weight:normal;line-height:125%;letter-spacing:0px;word-spacing:0px;fill:#000000;fill-opacity:1;stroke:none;font-family:Sans"
       x="26.580767"
       y="146.17094"
       id="text2985"
       sodipodi:linespacing="125%"
       transform="matrix(0.8422649,-0.03435592,0.04834842,1.1853028,0,0)"><tspan
         sodipodi:role="line"
         id="tspan2987"
         x="26.580767"
         y="146.17094"
         style="font-size:140.91043091px;font-style:normal;font-variant:normal;font-weight:normal;font-stretch:normal;font-family:Spumoni LP Std;-inkscape-font-specification:Spumoni LP Std">CK</tspan></text>
    <path
       sodipodi:type="arc"
       style="opacity:0.95;color:#000000;fill:#3362b0;fill-opacity:1;fill-rule:evenodd;stroke:none;stroke-width:1.42499995;marker:none;visibility:visible;display:inline;overflow:visible;enable-background:accumulate"
       id="path3951"
       sodipodi:cx="481.99268"
       sodipodi:cy="550.05206"
       sodipodi:rx="29.382174"
       sodipodi:ry="19.067156"
       d="m 511.37485,550.05206 a 29.382174,19.067156 0 1 1 -58.76435,0 29.382174,19.067156 0 1 1 58.76435,0 z"
       transform="matrix(1.0049385,0.29938557,-0.37002143,1.0005714,-116.84889,-645.58995)" />
  </g>
  <g
     style="display:none"
     inkscape:groupmode="layer"
     id="layer8"
     inkscape:label="Nav"
     sodipodi:insensitive="true" />
  <g
     style="display:inline"
     id="webslicer-layer"
     inkscape:label="Web Slicer"
     inkscape:groupmode="layer">
    <rect
       style="opacity:0.5;fill:#ff0000"
       id="header"
       x="0"
       y="9.9999997e-06"
       width="950"
       height="221.14951">
      <desc
         id="desc4409">format: png
dpi: 90
layout-disposition: bg-el-norepeat
layout-position-anchor: tl</desc>
    </rect>
    <rect
       height="1"
       width="950"
       y="482.26468"
       x="0"
       id="content"
       style="opacity:0.5;fill:#ff0000">
      <desc
         id="desc4669">format: png
dpi: 90
layout-disposition: bg-el-norepeat
layout-position-anchor: tl</desc>
    </rect>
    <rect
       style="opacity:0.5;fill:#ff0000"
       id="footer"
       x="-6.8417494e-15"
       y="540.00006"
       width="950"
       height="60">
      <desc
         id="desc4932">format: png
dpi: 90
layout-disposition: bg-el-norepeat
layout-position-anchor: tl</desc>
    </rect>
    <rect
       height="891.94714"
       width="1"
       y="9.9999997e-06"
       x="-1.7763568e-15"
       id="background"
       style="opacity:0.5;fill:#ff0000">
      <desc
         id="desc4088">format: png
dpi: 90
layout-disposition: bg-el-norepeat
layout-position-anchor: tl</desc>
    </rect>
  </g>
</svg>
