<?xml version="1.0" encoding="UTF-8" standalone="no"?>
<!-- Created with Inkscape (http://www.inkscape.org/) -->

<svg
   xmlns:dc="http://purl.org/dc/elements/1.1/"
   xmlns:cc="http://creativecommons.org/ns#"
   xmlns:rdf="http://www.w3.org/1999/02/22-rdf-syntax-ns#"
   xmlns:svg="http://www.w3.org/2000/svg"
   xmlns="http://www.w3.org/2000/svg"
   xmlns:xlink="http://www.w3.org/1999/xlink"
   xmlns:sodipodi="http://sodipodi.sourceforge.net/DTD/sodipodi-0.dtd"
   xmlns:inkscape="http://www.inkscape.org/namespaces/inkscape"
   width="950"
   height="2000"
   id="svg2"
   sodipodi:version="0.32"
   inkscape:version="0.48.3.1 r9886"
   version="1.0"
   sodipodi:docname="layout2.svg"
   inkscape:output_extension="org.inkscape.output.svg.inkscape">
  <defs
     id="defs4">
    <inkscape:perspective
       sodipodi:type="inkscape:persp3d"
       inkscape:vp_x="0 : 526.18109 : 1"
       inkscape:vp_y="0 : 1000 : 0"
       inkscape:vp_z="744.09448 : 526.18109 : 1"
       inkscape:persp3d-origin="372.04724 : 350.78739 : 1"
       id="perspective10" />
    <filter
       color-interpolation-filters="sRGB"
       inkscape:collect="always"
       id="filter4089">
      <feGaussianBlur
         inkscape:collect="always"
         stdDeviation="1.7236946"
         id="feGaussianBlur4091" />
    </filter>
    <linearGradient
       id="linearGradient4052">
      <stop
         style="stop-color:#0000ff;stop-opacity:1;"
         offset="0"
         id="stop4054" />
      <stop
         style="stop-color:#0000ff;stop-opacity:0;"
         offset="1"
         id="stop4056" />
    </linearGradient>
    <filter
       color-interpolation-filters="sRGB"
       inkscape:collect="always"
       id="filter4089-3">
      <feGaussianBlur
         inkscape:collect="always"
         stdDeviation="1.7236946"
         id="feGaussianBlur4091-7" />
    </filter>
    <linearGradient
       inkscape:collect="always"
       xlink:href="#linearGradient4052-2"
       id="linearGradient4058-3"
       x1="405.51425"
       y1="464.47809"
       x2="387.61005"
       y2="581.67633"
       gradientUnits="userSpaceOnUse"
       gradientTransform="translate(-233.48092,-411.94738)" />
    <linearGradient
       id="linearGradient4052-2">
      <stop
         style="stop-color:#0000ff;stop-opacity:1;"
         offset="0"
         id="stop4054-9" />
      <stop
         style="stop-color:#0000ff;stop-opacity:0;"
         offset="1"
         id="stop4056-9" />
    </linearGradient>
  </defs>
  <sodipodi:namedview
     id="base"
     pagecolor="#ffffff"
     bordercolor="#666666"
     borderopacity="1.0"
     gridtolerance="10000"
     guidetolerance="10"
     objecttolerance="10"
     inkscape:pageopacity="0.0"
     inkscape:pageshadow="2"
     inkscape:zoom="1.4283557"
     inkscape:cx="167.87139"
     inkscape:cy="1889.6188"
     inkscape:document-units="px"
     inkscape:current-layer="layer4"
     showgrid="false"
     showguides="true"
     inkscape:guide-bbox="true"
     inkscape:window-width="973"
     inkscape:window-height="744"
     inkscape:window-x="51"
     inkscape:window-y="24"
     inkscape:window-maximized="1">
    <sodipodi:guide
       orientation="1,0"
       position="0,0"
       id="guide0" />
    <sodipodi:guide
       orientation="1,0"
       position="40,0"
       id="guide1" />
    <sodipodi:guide
       orientation="1,0"
       position="30,0"
       id="guidex1" />
    <sodipodi:guide
       orientation="1,0"
       position="80,0"
       id="guide2" />
    <sodipodi:guide
       orientation="1,0"
       position="70,0"
       id="guidex2" />
    <sodipodi:guide
       orientation="1,0"
       position="120,0"
       id="guide3" />
    <sodipodi:guide
       orientation="1,0"
       position="110,0"
       id="guidex3" />
    <sodipodi:guide
       orientation="1,0"
       position="160,0"
       id="guide4" />
    <sodipodi:guide
       orientation="1,0"
       position="150,0"
       id="guidex4" />
    <sodipodi:guide
       orientation="1,0"
       position="200,0"
       id="guide5" />
    <sodipodi:guide
       orientation="1,0"
       position="190,0"
       id="guidex5" />
    <sodipodi:guide
       orientation="1,0"
       position="240,0"
       id="guide6" />
    <sodipodi:guide
       orientation="1,0"
       position="230,0"
       id="guidex6" />
    <sodipodi:guide
       orientation="1,0"
       position="280,0"
       id="guide7" />
    <sodipodi:guide
       orientation="1,0"
       position="270,0"
       id="guidex7" />
    <sodipodi:guide
       orientation="1,0"
       position="320,0"
       id="guide8" />
    <sodipodi:guide
       orientation="1,0"
       position="310,0"
       id="guidex8" />
    <sodipodi:guide
       orientation="1,0"
       position="360,0"
       id="guide9" />
    <sodipodi:guide
       orientation="1,0"
       position="350,0"
       id="guidex9" />
    <sodipodi:guide
       orientation="1,0"
       position="400,0"
       id="guide10" />
    <sodipodi:guide
       orientation="1,0"
       position="390,0"
       id="guidex10" />
    <sodipodi:guide
       orientation="1,0"
       position="440,0"
       id="guide11" />
    <sodipodi:guide
       orientation="1,0"
       position="430,0"
       id="guidex11" />
    <sodipodi:guide
       orientation="1,0"
       position="480,0"
       id="guide12" />
    <sodipodi:guide
       orientation="1,0"
       position="470,0"
       id="guidex12" />
    <sodipodi:guide
       orientation="1,0"
       position="520,0"
       id="guide13" />
    <sodipodi:guide
       orientation="1,0"
       position="510,0"
       id="guidex13" />
    <sodipodi:guide
       orientation="1,0"
       position="560,0"
       id="guide14" />
    <sodipodi:guide
       orientation="1,0"
       position="550,0"
       id="guidex14" />
    <sodipodi:guide
       orientation="1,0"
       position="600,0"
       id="guide15" />
    <sodipodi:guide
       orientation="1,0"
       position="590,0"
       id="guidex15" />
    <sodipodi:guide
       orientation="1,0"
       position="640,0"
       id="guide16" />
    <sodipodi:guide
       orientation="1,0"
       position="630,0"
       id="guidex16" />
    <sodipodi:guide
       orientation="1,0"
       position="680,0"
       id="guide17" />
    <sodipodi:guide
       orientation="1,0"
       position="670,0"
       id="guidex17" />
    <sodipodi:guide
       orientation="1,0"
       position="720,0"
       id="guide18" />
    <sodipodi:guide
       orientation="1,0"
       position="710,0"
       id="guidex18" />
    <sodipodi:guide
       orientation="1,0"
       position="760,0"
       id="guide19" />
    <sodipodi:guide
       orientation="1,0"
       position="750,0"
       id="guidex19" />
    <sodipodi:guide
       orientation="1,0"
       position="800,0"
       id="guide20" />
    <sodipodi:guide
       orientation="1,0"
       position="790,0"
       id="guidex20" />
    <sodipodi:guide
       orientation="1,0"
       position="840,0"
       id="guide21" />
    <sodipodi:guide
       orientation="1,0"
       position="830,0"
       id="guidex21" />
    <sodipodi:guide
       orientation="1,0"
       position="880,0"
       id="guide22" />
    <sodipodi:guide
       orientation="1,0"
       position="870,0"
       id="guidex22" />
    <sodipodi:guide
       orientation="1,0"
       position="920,0"
       id="guide23" />
    <sodipodi:guide
       orientation="1,0"
       position="910,0"
       id="guidex23" />
    <sodipodi:guide
       orientation="1,0"
       position="950,0"
       id="guidex24" />
  </sodipodi:namedview>
  <metadata
     id="metadata7">
    <rdf:RDF>
      <cc:Work
         rdf:about="">
        <dc:format>image/svg+xml</dc:format>
        <dc:type
           rdf:resource="http://purl.org/dc/dcmitype/StillImage" />
        <dc:title></dc:title>
      </cc:Work>
    </rdf:RDF>
  </metadata>
  <g
     inkscape:label="Grid"
     inkscape:groupmode="layer"
     id="layer1"
     sodipodi:insensitive="true"
     style="display:inline" />
  <g
     inkscape:groupmode="layer"
     id="layer3"
     inkscape:label="Background"
     style="display:inline"
     sodipodi:insensitive="true">
    <rect
       style="opacity:0.95;color:#000000;fill:#e6e6e6;fill-opacity:1;fill-rule:evenodd;stroke:none;stroke-width:1.42499995;marker:none;visibility:visible;display:inline;overflow:visible;enable-background:accumulate"
       id="rect3574"
       width="910"
       height="750"
       x="20"
       y="0" />
  </g>
  <g
     inkscape:groupmode="layer"
     id="layer2"
     inkscape:label="Logo"
     style="display:inline"
     sodipodi:insensitive="true">
    <path
       sodipodi:type="arc"
       style="opacity:0.95;color:#000000;fill:#0000ff;fill-opacity:1;fill-rule:evenodd;stroke:none;stroke-width:0.52499998;marker:none;visibility:visible;display:inline;overflow:visible;enable-background:accumulate"
       id="path3004-5"
       sodipodi:cx="511.37485"
       sodipodi:cy="490.66254"
       sodipodi:rx="83.770454"
       sodipodi:ry="30.945055"
       d="m 595.1453,490.66254 a 83.770454,30.945055 0 1 1 -167.54091,0 83.770454,30.945055 0 1 1 167.54091,0 z"
       transform="matrix(0.87686568,0,0,0.91919192,-332.15496,-279.45748)" />
    <path
       inkscape:connector-curvature="0"
       id="path3909"
       style="font-size:40px;font-style:normal;font-variant:normal;font-weight:normal;font-stretch:normal;line-height:125%;letter-spacing:0px;word-spacing:0px;fill:#ffffff;fill-opacity:1;stroke:none;font-family:Spumoni LP Std;-inkscape-font-specification:Spumoni LP Std"
       d="m 84.85832,181.94662 c 0.28048,-1.0694 0.0649,-2.0403 -0.63173,-2.223 -0.29331,-0.077 -0.5967,0.034 -0.64345,0.2122 -0.009,0.036 0.009,0.1166 0.10925,0.1811 0.38388,0.3292 0.45427,0.9573 0.25794,1.7058 -0.43942,1.6754 -2.66404,4.3304 -5.81716,3.5034 -0.62329,-0.1635 -1.2552,-0.4435 -1.92304,-0.8854 -2.2048,-1.4545 -1.83468,-7.7962 -0.43227,-13.1431 0.99103,-3.7786 2.51186,-7.0372 3.97348,-7.5301 1.07555,-0.3656 2.0576,-0.3747 2.97421,-0.1343 2.08986,0.5481 3.56707,2.5357 3.27211,4.7062 -0.0374,0.1426 -0.12942,0.1946 -0.20276,0.1754 -0.0733,-0.019 -0.12796,-0.1098 -0.12722,-0.262 -0.0589,-1.1203 -0.57783,-1.9803 -2.15439,-2.3938 -1.79655,-0.4712 -3.45451,0.7703 -3.87524,2.3744 -0.21503,0.8199 -0.10009,1.7263 0.41889,2.5863 0.38242,0.6337 0.95896,0.9754 1.54559,1.1293 1.86986,0.4904 4.49339,-1.1455 4.89908,-3.4393 0.49991,-2.8025 -1.1872,-5.0357 -3.93701,-5.7569 -1.39325,-0.3654 -3.08201,-0.3511 -4.90166,0.1622 -4.99018,1.3961 -8.212056,5.3135 -9.343326,9.6267 -1.12192,4.2776 -0.10724,8.9251 3.39438,11.7103 1.069686,0.8521 2.388136,1.5027 3.781366,1.8681 2.74981,0.7212 5.84485,0.2757 8.14131,-2.0556 0.63631,-0.6332 1.03467,-1.405 1.22165,-2.1179" />
    <path
       inkscape:connector-curvature="0"
       id="path3911"
       style="font-size:40px;font-style:normal;font-variant:normal;font-weight:normal;font-stretch:normal;line-height:125%;letter-spacing:0px;word-spacing:0px;fill:#ffffff;fill-opacity:1;stroke:none;font-family:Spumoni LP Std;-inkscape-font-specification:Spumoni LP Std"
       d="m 98.58445,185.95582 c -0.28147,0.1585 -0.8752,0.3986 -1.37271,0.4257 0.55768,-2.2794 1.09459,-4.3386 1.22989,-6.1766 0.13186,-1.8014 -0.13442,-3.4182 -1.063,-4.8754 -0.92858,-1.4572 -2.38267,-2.1866 -3.92988,-2.3325 -2.86453,-0.3073 -5.96756,1.5099 -6.10733,4.6061 -0.0422,1.2545 0.90747,2.0844 1.92636,2.1806 1.39627,0.1317 2.29637,-1.3381 2.29045,-2.4861 -0.0229,-1.3718 -0.49237,-2.0454 -1.3946,-2.1675 -0.37736,-0.036 -0.84751,0.1052 -1.33497,0.4293 0.51202,-0.9881 1.31867,-1.4673 2.11114,-1.3925 0.79248,0.075 1.52958,0.7365 1.83048,1.9865 0.24617,1.0226 0.2656,2.431 0.38786,3.9602 -1.35886,0.279 -2.99226,0.6432 -5.21181,0.3598 -0.84885,1.7337 -0.85366,3.3989 -0.3298,4.7069 0.52385,1.3079 1.7685,2.2397 3.05502,2.324 0.717,0.068 1.65383,-0.1771 2.40198,-0.4397 1.91418,0.2916 3.29003,0.2364 5.01934,0.066 0.10661,-0.3231 0.30602,-0.8225 0.49158,-1.1751 m -5.73008,0.6069 c -1.1598,0.1867 -1.69716,-1.3816 -1.6515,-2.6728 0.0322,-1.5517 0.37657,-3.1849 1.99267,-3.3656 -0.0671,2.3257 -0.20273,4.5709 -0.34117,6.0384" />
    <path
       inkscape:connector-curvature="0"
       id="path3913"
       style="font-size:40px;font-style:normal;font-variant:normal;font-weight:normal;font-stretch:normal;line-height:125%;letter-spacing:0px;word-spacing:0px;fill:#ffffff;fill-opacity:1;stroke:none;font-family:Spumoni LP Std;-inkscape-font-specification:Spumoni LP Std"
       d="m 113.3258,182.46732 c 0,-0.6634 -0.11371,-1.3267 -0.41695,-1.9163 -1.66779,-3.3167 -6.51955,-3.3536 -7.8462,-4.3855 -0.53067,-0.4422 -0.87181,-1.0318 -0.87181,-1.6952 0,-0.5527 0.26534,-1.1424 0.87181,-1.6215 0.64437,-0.5159 1.55408,-0.9213 2.42588,-0.9213 0.18952,0 0.41695,0.037 0.60647,0.074 -0.90971,0.3317 -1.40247,1.0688 -1.40247,1.8426 0,0.4423 0.18953,0.9214 0.53067,1.2899 0.60647,0.6633 1.40246,1.1793 2.31216,1.1793 0.56857,0 1.21294,-0.1843 1.81941,-0.7371 0.41695,-0.4054 0.72019,-0.995 0.72019,-1.6583 0,-0.7371 -0.34114,-1.511 -1.09923,-1.9532 -0.94761,-0.5528 -1.93312,-0.7739 -2.91864,-0.7739 -1.47827,0 -2.95654,0.5159 -4.09367,1.1793 -1.7057,0.9581 -3.07026,3.0587 -3.07026,5.1224 0,0.7371 0.18953,1.4741 0.60647,2.1375 1.6678,2.6165 6.10261,2.1742 7.54298,4.0906 0.34114,0.4422 0.64437,1.1424 0.64437,1.9163 0,1.0318 -0.49276,2.1743 -2.00893,3.0219 -0.60647,0.3316 -1.66779,0.5528 -2.72912,0.5528 -1.7436,0 -3.52511,-0.5528 -3.52511,-2.0638 0.53067,0.7739 1.47828,1.253 2.42589,1.253 0.60647,0 1.21294,-0.1843 1.7436,-0.6633 0.53066,-0.4791 0.79599,-1.1425 0.79599,-1.8795 0,-1.2161 -0.796,-2.5428 -2.53959,-2.8745 -0.18953,-0.037 -0.37905,-0.074 -0.60647,-0.074 -1.59199,0 -3.48721,1.1793 -3.48721,3.2062 0,0.4053 0.0758,0.8476 0.26533,1.3266 0.56857,1.5847 2.84283,2.506 5.26871,2.506 1.62989,0 3.37349,-0.4422 4.66224,-1.3267 1.7815,-1.2161 3.37349,-3.8326 3.37349,-6.1543" />
    <path
       inkscape:connector-curvature="0"
       id="path3915"
       style="font-size:40px;font-style:normal;font-variant:normal;font-weight:normal;font-stretch:normal;line-height:125%;letter-spacing:0px;word-spacing:0px;fill:#ffffff;fill-opacity:1;stroke:none;font-family:Spumoni LP Std;-inkscape-font-specification:Spumoni LP Std"
       d="m 126.08892,187.83082 c 0,-0.5528 -0.11371,-1.0687 -0.41695,-1.4741 -0.22742,-0.3316 -0.56856,-0.5159 -0.8718,-0.5159 -0.22742,0 -0.45485,0.1106 -0.53066,0.2948 -0.11371,0.258 -0.0379,0.2948 0.30324,0.5896 0.30323,0.2949 0.53066,0.8845 0.53066,1.5478 0.0379,0.8845 -0.30324,1.9532 -1.25085,2.5797 -0.30323,0.1843 -0.72018,0.3317 -1.13713,0.3317 -0.94761,0.037 -1.97103,-0.5528 -2.00893,-2.4323 -0.0379,-2.0269 0.49276,-5.233 0.98551,-11.3505 0.8339,-0.074 1.85732,-0.1474 2.84283,-0.4422 -0.0379,-0.5896 -0.18952,-1.2898 -0.22743,-1.7321 -0.98551,0.1843 -1.70569,0.4423 -2.57749,0.5897 0.0758,-2.0638 0.37904,-3.5378 0.72018,-6.4123 -0.68228,-0.037 -1.36456,-0.074 -2.04684,-0.074 -1.59198,-0.037 -3.03235,0.037 -4.13158,0.4422 0,0.2948 -0.0379,0.5896 -0.0379,0.8476 0.26533,-0.1474 0.68228,-0.3317 0.90971,-0.4054 -0.30324,1.4004 -0.8339,3.4641 -1.06133,6.1175 -0.60647,0.037 -1.17503,0.1106 -1.7436,0.1106 0,0.2948 0.15162,0.5896 0.26533,0.8476 0.45485,0 0.98552,-0.074 1.36456,-0.1474 -0.18952,2.2111 -0.37904,3.9432 -0.41695,5.4909 -0.0379,0.7002 -0.0379,1.3636 0,1.9901 0.11371,3.3167 0.30324,4.975 1.7436,6.4491 1.02342,1.0319 2.16055,1.4004 3.37349,1.3636 0.98552,0 2.00894,-0.2949 2.91864,-0.7371 1.51618,-0.737 2.50169,-2.4322 2.50169,-3.8695" />
    <path
       inkscape:connector-curvature="0"
       id="path3917"
       style="font-size:40px;font-style:normal;font-variant:normal;font-weight:normal;font-stretch:normal;line-height:125%;letter-spacing:0px;word-spacing:0px;fill:#ffffff;fill-opacity:1;stroke:none;font-family:Spumoni LP Std;-inkscape-font-specification:Spumoni LP Std"
       d="m 132.36565,172.50032 c -0.0379,-1.1056 -0.45485,-1.9532 -1.81941,-2.1743 -2.38798,-0.3685 -3.60092,1.2161 -3.67673,2.7639 -0.0379,1.4741 1.13714,2.5797 2.35008,2.5797 1.55408,0 3.18397,-1.4373 3.14606,-3.1693 m 0.90971,17.0626 c -0.18953,0 -0.41695,0 -0.64438,-0.037 0,-4.6434 0,-7.7759 -0.30323,-11.0926 -2.08474,-0.3685 -4.58644,-0.3316 -6.36794,-0.4422 0.11371,0.3317 0.30323,0.7371 0.41695,0.995 0.64437,-0.1105 1.13713,-0.2211 1.7057,-0.1842 -0.34114,1.4003 -0.41695,3.6852 -0.37905,6.965 0,1.2162 0,2.5797 0.0379,4.0538 -0.45486,0.037 -0.8339,-0.037 -1.36456,-0.074 0.15162,0.258 0.37904,0.5159 0.53066,0.737 1.89521,-0.037 3.90415,-0.1842 6.36794,-0.2579 l 0,-0.6634" />
    <path
       inkscape:connector-curvature="0"
       id="path3919"
       style="font-size:40px;font-style:normal;font-variant:normal;font-weight:normal;font-stretch:normal;line-height:125%;letter-spacing:0px;word-spacing:0px;fill:#ffffff;fill-opacity:1;stroke:none;font-family:Spumoni LP Std;-inkscape-font-specification:Spumoni LP Std"
       d="m 133.40554,175.69182 c 0.49907,-0.4437 1.71634,-0.9409 2.35346,-1.0622 -0.1255,1.3766 -0.13211,2.8183 -0.0253,4.2516 0.23274,3.1238 0.88401,6.2534 1.07841,8.8626 -0.79379,0.059 -1.05838,0.079 -1.32845,0.025 0.008,0.1103 0.0597,0.2912 0.0816,0.5852 0.98553,-0.036 2.04666,-0.079 3.06725,-0.1546 1.70098,-0.1267 3.31815,-0.3581 4.53542,-0.8553 -0.0493,-0.6615 -0.0279,-0.8848 -0.009,-1.1448 -0.32377,0.2458 -0.65028,0.4549 -1.09566,0.5989 -0.0389,-1.0318 -0.075,-2.0269 -0.14346,-2.9456 -0.16429,-2.205 -0.40363,-3.8871 -0.49947,-5.1734 -0.10678,-1.4332 0.0488,-2.4057 0.5501,-3.3299 0.39883,-0.7688 0.97351,-1.2181 1.46491,-1.2547 0.56699,-0.042 1.05345,0.3649 1.35144,1.3035 0.59871,1.914 1.033,6.7227 1.44538,11.2374 1.63634,0.026 3.69394,0.094 5.20593,-0.018 0.56699,-0.042 1.05565,-0.1157 1.42817,-0.2173 -0.1353,-0.2856 -0.3221,-0.7521 -0.4574,-1.0376 -0.36704,0.1752 -0.77736,0.2796 -1.22822,0.3502 -0.0103,-2.1796 -0.007,-4.1754 -0.13844,-5.9394 -0.32309,-4.3365 -1.33867,-7.2542 -4.29305,-7.6253 -0.30787,-0.051 -0.61027,-0.028 -0.91266,-0.01 -1.81439,0.1352 -3.8923,1.3247 -4.84558,3.8347 -0.26566,-1.0149 -0.56091,-1.9168 -0.64526,-2.5387 -0.30513,-0.014 -0.68587,-0.023 -1.13946,0.011 -1.77658,0.1324 -4.36011,0.6574 -5.89347,0.9934 l 0.0931,1.2495" />
    <path
       inkscape:connector-curvature="0"
       id="path3921"
       style="font-size:40px;font-style:normal;font-variant:normal;font-weight:normal;font-stretch:normal;line-height:125%;letter-spacing:0px;word-spacing:0px;fill:#ffffff;fill-opacity:1;stroke:none;font-family:Spumoni LP Std;-inkscape-font-specification:Spumoni LP Std"
       d="m 169.9725,179.57862 c -0.40789,-1.6074 -1.44943,-3.092 -3.70482,-3.8124 -1.95289,-0.607 -4.24843,-0.2527 -6.30537,0.1172 -2.10277,0.3435 -3.97602,0.6668 -4.90927,-0.237 -0.45755,-0.4162 -0.67654,-0.8169 -0.0419,-1.2441 3.12857,0.3087 6.14706,-2.2822 6.46781,-5.025 0.094,-0.7082 0.0416,-1.5313 -0.2127,-2.3793 -0.41743,-1.4909 -1.46851,-2.8591 -3.47772,-3.0716 2.22445,-1.0968 3.1397,-3.192 3.23614,-4.6613 0.0291,-0.5016 -0.006,-1.1011 -0.15977,-1.7084 -0.41743,-1.4909 -1.55106,-2.8761 -3.92151,-2.0465 -1.35986,0.4972 -1.89718,2.0783 -1.5432,3.3192 0.26334,0.8837 1.30633,1.9117 2.40853,1.632 1.65328,-0.4195 2.41867,-1.5643 2.0561,-2.9931 -0.13596,-0.5358 -0.46468,-1.0607 -1.0692,-1.4396 0.73383,0.118 1.25484,0.7842 1.51818,1.6679 0.5262,1.9196 -0.32753,4.8737 -3.72573,5.6599 -0.01,0.1165 -0.0835,0.2873 -0.0835,0.2873 -1.85368,-0.062 -4.20698,1.1436 -5.35026,2.8025 -0.71909,1.0189 -0.92672,2.8205 -0.51883,4.4279 0.45368,1.6338 1.55962,3.0641 3.68764,3.4366 -1.1619,1.7396 -1.81477,5.0229 0.81613,5.9902 -1.32603,1.401 -2.37058,3.7572 -1.89067,5.8026 0.37115,1.6167 1.67893,3.0718 4.51261,3.7595 1.87083,0.4378 3.83474,0.4717 5.67174,0.01 2.58086,-0.6168 4.82539,-2.251 6.12809,-4.9768 0.40655,-0.8636 0.9921,-3.1793 0.41152,-5.3132 m -11.91668,-7.3557 c 0.0902,0.5094 -0.23241,0.9335 -0.62748,1.0717 -0.32159,0.1197 -0.72525,0.07 -0.94425,-0.3307 -1.04007,-1.9412 -1.99422,-4.9308 -2.28995,-7.175 -0.0897,-0.6616 0.20521,-1.0406 0.58168,-1.0981 0.3674,-0.093 0.79824,0.064 1.04443,0.5714 0.87548,1.7549 1.81246,4.3687 2.23557,6.9607 m 10.87115,10.0163 c 0.10877,0.4286 0.16219,0.9473 0.0868,1.5748 -0.20812,1.9538 -2.26279,4.4903 -5.56938,5.3293 -1.17568,0.2983 -2.56177,0.3839 -4.05711,0.1931 -3.07322,-0.3988 -4.84859,-2.0014 -5.36572,-3.8853 -0.41695,-1.6431 0.13946,-3.4572 1.80521,-4.9064 2.50303,0.7716 5.94753,-0.1405 8.49926,-0.2557 2.12041,-0.1198 4.07428,0.1828 4.60096,1.9502" />
    <path
       style="opacity:0.95;color:#000000;fill:url(#linearGradient4058-3);fill-opacity:1;fill-rule:evenodd;stroke:none;stroke-width:1.42499995;marker:none;visibility:visible;display:inline;overflow:visible;enable-background:accumulate"
       d="m 187.02974,169.73572 c -0.70604,-2.2246 -7.49086,-7.9059 -12.60163,-10.552 -14.79577,-7.6608 -35.26119,-11.5402 -60.88651,-11.5415 -25.59374,0 -46.776836,4.0457 -61.123216,11.6776 -2.88156,1.5329 -5.14721,2.5642 -5.03479,2.2918 0.11242,-0.2725 21.86594,-30.6299 48.341156,-67.461004 l 48.13675,-66.9658 0.52054,2.6134 c 1.97387,9.9099 9.52952,17.4337 21.3598,21.2698 11.98798,3.8872 26.36513,1.6417 32.22582,-5.0332 l 2.03234,-2.3148 -0.36345,2.1602 c -0.1999,1.1881 -2.81998,29.5888 -5.8224,63.112604 -3.00242,33.5238 -5.66626,61.1917 -5.91964,61.4842 -0.25339,0.2925 -0.64254,-0.041 -0.86477,-0.7413 z"
       id="path4046"
       inkscape:connector-curvature="0" />
    <text
       xml:space="preserve"
       style="font-size:37.47771072px;font-style:normal;font-weight:normal;line-height:125%;letter-spacing:0px;word-spacing:0px;fill:#000000;fill-opacity:0.30136988;stroke:none;filter:url(#filter4089-3);font-family:Sans"
       x="472.96811"
       y="458.70947"
       id="text2985-8"
       sodipodi:linespacing="125%"
       transform="matrix(0.8422649,-0.03435592,0.04834842,1.1853028,-374.09501,-370.18398)"><tspan
         sodipodi:role="line"
         id="tspan2987-6"
         x="472.96811"
         y="458.70947"
         style="font-size:134.91976929px;font-style:normal;font-variant:normal;font-weight:normal;font-stretch:normal;fill:#000000;fill-opacity:0.30136988;font-family:Spumoni LP Std;-inkscape-font-specification:Spumoni LP Std">CK</tspan></text>
    <text
       xml:space="preserve"
       style="font-size:37.47771072px;font-style:normal;font-weight:normal;line-height:125%;letter-spacing:0px;word-spacing:0px;fill:#000000;fill-opacity:1;stroke:#000000;stroke-width:1;stroke-opacity:1;font-family:Sans"
       x="42.749718"
       y="131.94446"
       id="text2985"
       sodipodi:linespacing="125%"
       transform="matrix(0.8422649,-0.03435592,0.04834842,1.1853028,0,0)"><tspan
         sodipodi:role="line"
         id="tspan2987"
         x="42.749718"
         y="131.94446"
         style="font-size:134.91976929px;font-style:normal;font-variant:normal;font-weight:normal;font-stretch:normal;stroke:#000000;stroke-width:1;stroke-opacity:1;font-family:Spumoni LP Std;-inkscape-font-specification:Spumoni LP Std">CK</tspan></text>
    <path
       sodipodi:type="arc"
       style="opacity:0.95;color:#000000;fill:#3362b0;fill-opacity:1;fill-rule:evenodd;stroke:none;stroke-width:1.42499995;marker:none;visibility:visible;display:inline;overflow:visible;enable-background:accumulate"
       id="path3951"
       sodipodi:cx="481.99268"
       sodipodi:cy="550.05206"
       sodipodi:rx="29.382174"
       sodipodi:ry="19.067156"
       d="m 511.37485,550.05206 a 29.382174,19.067156 0 1 1 -58.76435,0 29.382174,19.067156 0 1 1 58.76435,0 z"
       transform="matrix(0.9622146,0.28665751,-0.35429035,0.95803313,-97.698206,-628.23448)" />
  </g>
  <g
     inkscape:groupmode="layer"
     id="layer4"
     inkscape:label="Layer"
     style="display:inline" />
</svg>
